<svg xmlns="http://www.w3.org/2000/svg" viewBox="0 0 890 290"><path fill="#69b247" d="M799.2 76.1h27v101.4q0 4.2 1.5 5.8a4.4 4.4 0 0 0 3.2 1.7h1.6a6 6 0 0 0 1.7-.4l3.3 20a29 29 0 0 1-5.6 1.6 44 44 0 0 1-8 .6 28 28 0 0 1-11.7-2.2 18.9 18.9 0 0 1-7.6-6.1 26 26 0 0 1-4.2-9.5 56.5 56.5 0 0 1-1.2-12.6zM742.2 76.1h27v101.4q0 4.2 1.5 5.8a4.4 4.4 0 0 0 3.2 1.7h1.6a6 6 0 0 0 1.7-.4l3.3 20a29 29 0 0 1-5.6 1.6 44 44 0 0 1-8 .6 28 28 0 0 1-11.7-2.2 18.9 18.9 0 0 1-7.6-6.1 26 26 0 0 1-4.2-9.5 56.5 56.5 0 0 1-1.2-12.6zM637.4 159.2a51.8 51.8 0 0 1 3.7-20 47 47 0 0 1 9.6-15 41.7 41.7 0 0 1 13.6-9.4 40.1 40.1 0 0 1 16-3.3 40.5 40.5 0 0 1 17 3.3 33.5 33.5 0 0 1 12 9.2 38.8 38.8 0 0 1 7.2 13.8 60.1 60.1 0 0 1 2.4 17.3 56.8 56.8 0 0 1-.3 6.7c-.3 2-.5 3.6-.8 4.7h-54.4q1.8 10.5 8.2 15.1t15.4 4.7q9.8 0 19.6-6l9 16.3a59.8 59.8 0 0 1-15.4 7.5 54.5 54.5 0 0 1-16.8 2.8 50.6 50.6 0 0 1-18.1-3.2 41.7 41.7 0 0 1-14.7-9.4 42.9 42.9 0 0 1-9.7-15 54.5 54.5 0 0 1-3.5-20.2zm58.6-9.4q0-7.9-3.5-12.8t-11.7-5a16.4 16.4 0 0 0-11.2 4.3q-5 4.3-6.4 13.5zM489.9 113.7h26.7l8.8 42.2 2 13.3 2 13.6h.8l2.4-13.8q1.2-6.8 2.9-13.1l10-42.2h23.3l10.3 42.2 3 13.3 2.7 13.6h.7q1.3-7 2.1-13.6t2.1-13.3l8.6-42.2h25l-21.8 90.9H570l-8.2-36.3q-1.5-6.4-2.6-12.8t-2.4-13.8h-.8l-2.3 13.8q-1 6.4-2.3 12.8l-8 36.3h-30.8z"/><path fill="#424242" d="M393.7 159.2a51.6 51.6 0 0 1 3.6-20 47 47 0 0 1 9.7-15 41.7 41.7 0 0 1 13.6-9.4 40 40 0 0 1 16-3.3 40.5 40.5 0 0 1 16.9 3.3 33.5 33.5 0 0 1 12.1 9.2 39 39 0 0 1 7.2 13.8 60.5 60.5 0 0 1 2.4 17.3 54.6 54.6 0 0 1-.3 6.7c-.3 2-.5 3.6-.8 4.7h-54.4q1.8 10.5 8.2 15.1t15.4 4.7q9.8 0 19.6-6l9 16.3a59.8 59.8 0 0 1-15.4 7.5 54.5 54.5 0 0 1-16.8 2.8 50.5 50.5 0 0 1-18.1-3.2 41.7 41.7 0 0 1-14.7-9.4 42.6 42.6 0 0 1-9.7-15 54.3 54.3 0 0 1-3.5-20.2zm58.6-9.4q0-7.9-3.5-12.8t-11.7-5a16.5 16.5 0 0 0-11.3 4.3q-4.8 4.3-6.3 13.5zM284.6 159.2a58 58 0 0 1 3.2-20 48.4 48.4 0 0 1 8.5-15 36.5 36.5 0 0 1 12-9.4 32 32 0 0 1 14-3.3q7.8 0 12.7 2.6a45.2 45.2 0 0 1 9.7 7l-1-14v-31h26.9v128.5h-22l-1.9-9h-.7a42.3 42.3 0 0 1-11.2 8 28.8 28.8 0 0 1-13 3.2 34.9 34.9 0 0 1-15.3-3.3 33 33 0 0 1-11.7-9.4 44.5 44.5 0 0 1-7.5-15 69.1 69.1 0 0 1-2.7-20zm27.7-.4q0 13.5 4.3 19.8a14 14 0 0 0 12.2 6.2 17.3 17.3 0 0 0 8-1.8 20.2 20.2 0 0 0 6.9-6.4v-37.2a21.6 21.6 0 0 0-7.5-4.6 23.8 23.8 0 0 0-7.6-1.3q-6.4 0-11.3 6.1t-5 19.2z"/><path fill="#40873f" d="M207.4 198.7l-51.1-24.6v15.1l51.1 24.7 58.9-28.5v-15.2l-58.9 28.5z"/><path fill="#284f27" d="M207.4 198.7l58.9-28.4-4-2-54.9 26.6-47.1-22.7-4 1.8 51.1 24.7z"/><path fill="#6abf4b" d="M207.4 179.7l-51.1-24.6v15.1l51.1 24.7 58.9-28.4v-15.2l-58.9 28.4z"/><path fill="#548e39" d="M207.4 179.7l58.9-28.4-4-1.9-54.9 26.5-47.1-22.7-4 1.9 51.1 24.6z"/><path fill="#333" d="M207.4 157l-51.1-24.7v19l51.1 24.7 58.9-28.5v-19L207.4 157z"/><path fill="#5b5b5b" d="M156.3 132.3l59.4-28.4 50.6 24.6-59 28.5z"/><path fill="#424242" d="M52.5 113.7h22l1.8 11.5h.8a73.3 73.3 0 0 1 12.8-9.6 31.4 31.4 0 0 1 16.3-4q14.9 0 21.5 9.6t6.7 27v56.4h-27v-53c0-6.6-.8-11.1-2.6-13.6s-4.6-3.6-8.5-3.6a16.3 16.3 0 0 0-8.8 2.3 51.6 51.6 0 0 0-8 6.5v61.4h-27z"/></svg>