<svg xmlns="http://www.w3.org/2000/svg" viewBox="0 0 1024 1024"><path fill="#40873f" d="M485.3 783.6L137 615.5v103.3L485.3 887 887 693V589.5L485.3 783.6z"/><path fill="#284f27" d="M485.2 783.6l401.7-194.1-26.8-12.9-374.9 181.1-321.4-155.2-26.8 12.9 348.2 168.2z"/><path fill="#6abf4b" d="M485.3 654.3L137 486.1v103.4l348.3 168.1L887 563.7V460.1L485.3 654.3z"/><path fill="#548e39" d="M485.2 654.2l401.7-194-26.8-12.9-374.9 181.1-321.4-155.3-26.8 13 348.2 168.1z"/><path fill="#333" d="M485.3 499.1L137 330.9v129.2l348.3 168.4L887 434.3V304.9L485.3 499.1z"/><path fill="#5b5b5b" d="M137 330.8L541.7 137l345.2 168-401.7 194z"/></svg>